<svg version="1.1" xmlns="http://www.w3.org/2000/svg" xmlns:xlink="http://www.w3.org/1999/xlink" width="181" height="35.5" viewBox="0,0,181,35.5"><defs><radialGradient cx="240.5" cy="181.25" r="90.5" gradientUnits="userSpaceOnUse" id="color-1"><stop offset="0" stop-color="#a59a4f"/><stop offset="1" stop-color="#aba052"/></radialGradient><radialGradient cx="240.5" cy="177.75" r="90.05272" gradientUnits="userSpaceOnUse" id="color-2"><stop offset="0" stop-color="#d9ca69"/><stop offset="1" stop-color="#dac253"/></radialGradient></defs><g transform="translate(-150,-161.75)"><g data-paper-data="{&quot;isPaintingLayer&quot;:true}" fill-rule="nonzero" stroke="none" stroke-linecap="butt" stroke-linejoin="miter" stroke-miterlimit="10" stroke-dasharray="" stroke-dashoffset="0" style="mix-blend-mode: normal"><path d="M150,192.91667c0,-6.19122 0,-17.26285 0,-21.27085c0,-2.84298 2.66166,-6.39582 6.07597,-6.39582c16.30268,0 142.11481,0 169.62211,0c3.40341,0 5.30192,3.08602 5.30192,5.66667c0,3.92179 0,15.40107 0,21.83333c0,2.692 -1.48457,4.5 -3.56762,4.5c-13.25041,0 -146.95535,0 -173.03554,0c-2.8337,0 -4.39684,-1.73779 -4.39684,-4.33333z" fill="url(#color-1)" stroke-width="0"/><path d="M150.44728,189.41667c0,-6.19122 0,-17.26285 0,-21.27085c0,-2.84297 2.64851,-6.39582 6.04594,-6.39582c16.22211,0 141.41244,0 168.78379,0c3.38658,0 5.27571,3.08602 5.27571,5.66667c0,3.92179 0,15.40107 0,21.83333c0,2.69201 -1.47724,4.5 -3.54999,4.5c-13.18492,0 -146.22905,0 -172.18034,0c-2.81969,0 -4.3751,-1.73779 -4.3751,-4.33333z" fill="url(#color-2)" stroke-width="0"/><text transform="translate(220.68643,183.05112) scale(0.25426,0.25426)" font-size="40" xml:space="preserve" fill="#3b3723" fill-rule="nonzero" stroke="none" stroke-width="1" stroke-linecap="butt" stroke-linejoin="miter" stroke-miterlimit="10" stroke-dasharray="" stroke-dashoffset="0" font-family="Sans Serif" font-weight="normal" text-anchor="start" style="mix-blend-mode: normal"><tspan x="0" dy="0">Let's Go</tspan></text></g></g></svg>