<svg version="1.1" xmlns="http://www.w3.org/2000/svg" xmlns:xlink="http://www.w3.org/1999/xlink" width="181.05272" height="33.25" viewBox="0,0,181.05272,33.25"><defs><radialGradient cx="240.5" cy="181.25" r="90.5" gradientUnits="userSpaceOnUse" id="color-1"><stop offset="0" stop-color="#a59a4f"/><stop offset="1" stop-color="#aba052"/></radialGradient><radialGradient cx="240.22364" cy="180" r="90.27636" gradientUnits="userSpaceOnUse" id="color-2"><stop offset="0" stop-color="#d9ca69"/><stop offset="1" stop-color="#dac253"/></radialGradient></defs><g transform="translate(-149.94728,-164)"><g data-paper-data="{&quot;isPaintingLayer&quot;:true}" fill-rule="nonzero" stroke="none" stroke-linecap="butt" stroke-linejoin="miter" stroke-miterlimit="10" stroke-dasharray="" stroke-dashoffset="0" style="mix-blend-mode: normal"><path d="M150,192.91667c0,-6.19122 0,-17.26285 0,-21.27085c0,-2.84298 2.66166,-6.39582 6.07597,-6.39582c16.30268,0 142.11481,0 169.62211,0c3.40341,0 5.30192,3.08602 5.30192,5.66667c0,3.92179 0,15.40107 0,21.83333c0,2.692 -1.48457,4.5 -3.56762,4.5c-13.25041,0 -146.95535,0 -173.03554,0c-2.8337,0 -4.39684,-1.73779 -4.39684,-4.33333z" fill="url(#color-1)" stroke-width="0"/><path d="M149.94728,191.66667c0,-6.19122 0,-17.26285 0,-21.27085c0,-2.84297 2.65508,-6.39582 6.06096,-6.39582c16.26239,0 141.76363,0 169.20295,0c3.39499,0 5.28881,3.08602 5.28881,5.66667c0,3.92179 0,15.40107 0,21.83333c0,2.69201 -1.48091,4.5 -3.5588,4.5c-13.21767,0 -146.5922,0 -172.60794,0c-2.8267,0 -4.38596,-1.73779 -4.38596,-4.33333z" fill="url(#color-2)" stroke-width="0"/><text transform="translate(220.68643,185.28753) scale(0.25426,0.25426)" font-size="40" xml:space="preserve" fill="#3b3723" fill-rule="nonzero" stroke="none" stroke-width="1" stroke-linecap="butt" stroke-linejoin="miter" stroke-miterlimit="10" stroke-dasharray="" stroke-dashoffset="0" font-family="Sans Serif" font-weight="normal" text-anchor="start" style="mix-blend-mode: normal"><tspan x="0" dy="0">Let's Go</tspan></text></g></g></svg>