<svg version="1.1" xmlns="http://www.w3.org/2000/svg" xmlns:xlink="http://www.w3.org/1999/xlink" width="61.74953" height="47.49853" viewBox="0,0,61.74953,47.49853"><g transform="translate(-209.33923,-157.5172)"><g data-paper-data="{&quot;isPaintingLayer&quot;:true}" fill-rule="nonzero" stroke-linejoin="miter" stroke-miterlimit="10" stroke-dasharray="" stroke-dashoffset="0" style="mix-blend-mode: normal"><path d="M210.83924,195.51842c0,-8.28624 0,-20.72576 0,-25.83748c0,-4.37221 5.50603,-10.15044 10.15044,-10.15044c7.23029,0 39.05841,0.07783 39.62652,0.22149c3.78504,0.95713 8.97256,4.83605 8.97256,8.08341c0,5.01273 0,18.4945 0,27.37543c0,0.57087 -0.4403,3.95287 -2.05405,5.61987c-2.11712,2.18697 -5.65572,2.68503 -6.86604,2.68503c-12.37231,0 -34.00022,0 -40.90935,0c-4.17871,0 -8.92008,-3.34367 -8.92008,-7.99732z" fill="#1e1e1b" stroke="#dfd781" stroke-width="3" stroke-linecap="butt"/><path d="M210.83923,195.00512c0,-8.28624 0,-20.72576 0,-25.83748c0,-4.37221 5.50603,-10.15044 10.15044,-10.15044c7.23029,0 39.05841,0.07783 39.62652,0.22149c3.78504,0.95713 8.97256,4.83605 8.97256,8.08341c0,5.01273 0,18.4945 0,27.37543c0,0.6272 -0.42677,4.10071 -2.26444,5.9291c-2.02929,2.01905 -5.53637,2.3758 -6.65565,2.3758c-12.37231,0 -34.00022,0 -40.90935,0c-4.17871,0 -8.92008,-3.34367 -8.92008,-7.99732z" fill="#34342e" stroke="#fff492" stroke-width="3" stroke-linecap="butt"/><path d="M228.56132,180c0,-6.31741 5.12127,-11.43868 11.43868,-11.43868c6.31741,0 11.43868,5.12127 11.43868,11.43868c0,6.31741 -5.12127,11.43868 -11.43868,11.43868c-6.31741,0 -11.43868,-5.12127 -11.43868,-11.43868z" fill="#fff492" stroke="none" stroke-width="0" stroke-linecap="butt"/><path d="M245.53538,180.71468l-6.01415,0.11792v-7.07547" fill="none" stroke="#34342e" stroke-width="2" stroke-linecap="round"/></g></g></svg>